<svg data-v-423bf9ae="" xmlns="http://www.w3.org/2000/svg" viewBox="0 0 90 179" class="iconAboveSlogan"><!----><!----><!----><g data-v-423bf9ae="" id="4cf94d8f-92ea-44cd-9c3c-a6799d56fee9" fill="#000000" transform="matrix(4.2425313999419805,0,0,4.2425313999419805,8.599076009144682,91.5557684896749)"><path d="M8.74 3.00Q8.74 3.12 8.67 3.25Q8.61 3.37 8.55 3.45Q8.48 3.53 8.46 3.56L8.46 3.56L7.88 3.56Q7.76 3.68 7.76 3.85L7.76 3.85Q7.76 3.92 7.81 4.14L7.81 4.14Q7.88 4.52 7.88 4.69L7.88 4.69L7.88 7.87Q7.88 12.96 8.11 16.17L8.11 16.17Q8.12 16.51 7.94 16.66Q7.76 16.81 7.49 16.81L7.49 16.81Q7.29 16.81 7.11 16.74Q6.92 16.67 6.82 16.58L6.82 16.58Q6.71 16.24 6.56 15.80Q6.41 15.36 6.23 14.80L6.23 14.80Q5.21 11.80 4.79 10.32L4.79 10.32Q4.66 9.84 4.41 9.28Q4.16 8.71 4.13 8.65L4.13 8.65Q4.05 8.47 4.00 8.35Q3.96 8.23 3.95 8.20L3.95 8.20Q3.84 7.95 3.78 7.56L3.78 7.56Q3.71 7.20 3.63 7.01Q3.54 6.82 3.30 6.69L3.30 6.69L3.30 8.65L3.30 10.89L3.30 13.15L3.30 13.99L3.30 15.39Q3.49 15.57 3.68 15.62Q3.86 15.67 4.13 15.67L4.13 15.67Q4.13 15.81 4.16 16.09L4.16 16.09Q4.19 16.31 4.19 16.39L4.19 16.39Q4.19 16.59 4.11 16.69Q4.03 16.79 3.82 16.79L3.82 16.79L3.19 16.80L1.32 16.84Q1.20 16.84 1.17 16.75Q1.13 16.66 1.13 16.48L1.13 16.48Q1.13 16.28 1.15 16.17L1.15 16.17L1.16 15.75Q1.19 15.76 1.28 15.79Q1.37 15.82 1.46 15.82L1.46 15.82Q1.62 15.82 1.62 15.67L1.62 15.67Q1.78 15.34 1.78 14.81L1.78 14.81Q1.78 14.59 1.75 14.20L1.75 14.20Q1.72 13.83 1.72 13.71L1.72 13.71Q1.72 13.22 1.67 12.21L1.67 12.21Q1.62 11.59 1.62 11.19L1.62 11.19L1.61 9.21Q1.61 8.89 1.55 8.36L1.55 8.36Q1.50 7.83 1.50 7.56L1.50 7.56Q1.50 7.48 1.43 7.13L1.43 7.13Q1.34 6.82 1.34 6.69L1.34 6.69L1.34 6.41L1.34 5.56Q1.34 5.35 1.33 5.26L1.33 5.26L1.32 4.84Q1.32 4.62 1.18 4.28L1.18 4.28Q1.06 4.00 1.06 3.88L1.06 3.88Q0.66 3.88 0.43 3.71Q0.21 3.54 0.21 3.32L0.21 3.32Q0.21 3.11 0.35 2.95Q0.49 2.80 0.70 2.80L0.70 2.80Q0.81 2.80 0.88 2.79Q0.94 2.79 0.99 2.79L0.99 2.79Q1.12 2.76 1.34 2.74L1.34 2.74Q1.44 2.73 1.57 2.75Q1.69 2.77 1.76 2.77L1.76 2.77Q2.04 2.80 2.25 2.80L2.25 2.80Q2.42 2.80 2.53 2.91Q2.65 3.02 2.69 3.15Q2.74 3.28 2.74 3.32L2.74 3.32Q3.29 4.12 3.68 5.01Q4.07 5.89 4.61 7.28L4.61 7.28Q5.07 8.50 5.26 8.93L5.26 8.93Q5.45 9.51 5.64 9.93Q5.84 10.36 6.12 10.89L6.12 10.89Q6.12 11.09 6.17 11.26Q6.22 11.44 6.36 11.76L6.36 11.76Q6.40 11.84 6.50 12.21L6.50 12.21Q6.61 12.56 6.75 12.94Q6.89 13.33 7.01 13.50L7.01 13.50Q7.04 13.54 7.05 13.49Q7.06 13.44 7.06 13.34L7.06 13.34Q7.06 13.13 7 12.40L7 12.40Q6.94 11.68 6.94 11.47L6.94 11.47Q6.94 10.84 7 9.27L7 9.27Q7.06 7.59 7.06 6.65L7.06 6.65L7.06 6.37Q7.06 5.94 6.92 5.24L6.92 5.24Q6.78 4.54 6.78 4.12L6.78 4.12Q6.51 3.85 6.31 3.70Q6.10 3.56 5.92 3.56L5.92 3.56Q5.84 3.47 5.73 3.40Q5.63 3.32 5.58 3.25Q5.53 3.18 5.53 3.08L5.53 3.08Q5.53 2.93 5.64 2.70L5.64 2.70Q5.77 2.70 5.84 2.74Q5.92 2.79 6.15 2.79L6.15 2.79Q6.41 2.79 6.57 2.75Q6.73 2.72 6.78 2.70L6.78 2.70Q6.94 2.74 7.14 2.74L7.14 2.74Q7.28 2.74 7.59 2.72L7.59 2.72Q8.02 2.69 8.20 2.70L8.20 2.70Q8.61 2.73 8.74 3.00L8.74 3.00ZM12.56 15.72Q13.05 15.72 13.36 15.84Q13.66 15.96 13.66 16.18L13.66 16.18Q13.66 16.37 13.44 16.60L13.44 16.60Q13.08 16.60 12.05 16.67L12.05 16.67Q11.33 16.73 11.02 16.73L11.02 16.73Q10.42 16.73 9.91 16.60L9.91 16.60Q9.88 16.58 9.81 16.49Q9.74 16.41 9.67 16.28Q9.60 16.16 9.60 16.02L9.60 16.02Q9.83 15.79 9.94 15.76Q10.05 15.72 10.49 15.72L10.49 15.72Q10.65 15.57 10.65 15.16L10.65 15.16Q10.65 15.01 10.63 14.70L10.63 14.70Q10.60 14.42 10.60 14.31L10.60 14.31L10.60 13.87Q10.60 12.56 10.64 11.45L10.64 11.45Q10.67 10.14 10.67 9.51L10.67 9.51Q10.67 9.14 10.68 8.95L10.68 8.95L10.70 8.12Q10.70 7.56 10.67 7.25L10.67 7.25Q10.64 6.89 10.64 6.78L10.64 6.78L10.64 6.72Q10.64 6.43 10.65 6.24L10.65 6.24Q10.68 5.61 10.67 5.03L10.67 5.03L10.68 4.58Q10.68 4.38 10.64 4.26Q10.60 4.14 10.47 4.10L10.47 4.10Q10.32 4.03 10.09 4.03L10.09 4.03Q9.94 4.02 9.85 3.99Q9.76 3.96 9.63 3.85L9.63 3.85Q9.35 3.70 9.35 3.54L9.35 3.54Q9.35 3.44 9.44 3.35Q9.52 3.25 9.64 3.14Q9.76 3.04 9.83 2.98L9.83 2.98Q10.91 2.79 12.50 2.79L12.50 2.79L14.01 2.80Q14.13 2.80 14.20 2.79Q14.28 2.77 14.34 2.77L14.34 2.77Q14.48 2.77 14.62 2.80L14.62 2.80Q15.43 2.93 16.07 3.88Q16.72 4.84 16.95 6.03L16.95 6.03Q16.95 6.92 16.91 7.45Q16.86 7.98 16.66 8.39L16.66 8.39Q16.51 8.85 16.18 9.23Q15.85 9.60 15.32 10.05L15.32 10.05Q14.90 10.43 14.90 10.43L14.90 10.43Q14.49 10.64 14.08 10.69Q13.66 10.74 12.85 10.74L12.85 10.74Q12.82 10.74 12.76 10.75Q12.70 10.77 12.63 10.84Q12.56 10.91 12.56 11.03L12.56 11.03Q12.54 11.16 12.55 11.44Q12.56 11.72 12.56 11.87L12.56 11.87L12.56 12.19Q12.56 12.71 12.49 13.37L12.49 13.37Q12.47 13.52 12.45 13.89Q12.42 14.25 12.42 14.55L12.42 14.55Q12.42 15.16 12.56 15.72L12.56 15.72ZM12.56 8.09L12.56 9.55Q12.68 9.69 12.88 9.76Q13.08 9.83 13.29 9.83L13.29 9.83Q13.52 9.83 13.69 9.73L13.69 9.73Q14.11 9.46 14.45 9.01Q14.78 8.55 14.90 8.09L14.90 8.09Q14.92 7.95 15.00 7.67Q15.08 7.38 15.09 7.09Q15.11 6.80 15.11 6.38L15.11 6.38Q15.11 5.74 14.97 5.09Q14.83 4.44 14.62 3.99L14.62 3.99Q14.50 3.99 14.38 3.94Q14.25 3.89 14.21 3.88L14.21 3.88Q13.82 3.68 13.44 3.68L13.44 3.68L12.56 3.68Q12.42 4.38 12.42 5.15L12.42 5.15Q12.42 5.53 12.45 5.99Q12.47 6.45 12.49 6.64L12.49 6.64Q12.56 7.45 12.56 8.09L12.56 8.09Z"></path></g><defs data-v-423bf9ae=""><linearGradient data-v-423bf9ae="" gradientTransform="rotate(25)" id="3b8ffaeb-32a6-49b6-bfb5-de457d49c8e2" x1="0%" y1="0%" x2="100%" y2="0%"><stop data-v-423bf9ae="" offset="0%" style="stop-color: rgb(0, 102, 120); stop-opacity: 1;"></stop><stop data-v-423bf9ae="" offset="100%" style="stop-color: rgb(79, 168, 255); stop-opacity: 1;"></stop></linearGradient></defs><g data-v-423bf9ae="" id="798e07fc-671f-4beb-a6f5-d2e9639b44af" transform="matrix(2.8125,0,0,2.8125,0,0)" stroke="none" fill="url(#3b8ffaeb-32a6-49b6-bfb5-de457d49c8e2)"><path d="M0 16.024L15.976 32 32 15.976 16.024 0 0 16.024zm15.989 7.323l-7.336-7.336 14.694-.022-7.358 7.358z"></path></g><!----><g data-v-423bf9ae="" id="3e054495-fe9d-42e4-ba19-991833bc737e" fill="#000000" transform="matrix(0.2739404772587052,0,0,0.2739404772587052,18.476415399247532,207.68037996000885)"><path d="M8.41 5.88L7.42 15.68L5.28 15.68L4.37 6.38L4.20 6.38L3.29 15.68L1.15 15.68L0.15 5.88L1.22 5.88L2.16 15.18L2.32 15.18L3.21 5.88L5.36 5.88L6.24 15.18L6.41 15.18L7.35 5.88L8.41 5.88ZM23.18 12.54L17.58 12.54Q17.63 13.58 18.23 14.21Q18.83 14.84 19.91 14.84L19.91 14.84Q20.40 14.84 20.76 14.73Q21.13 14.62 21.38 14.42Q21.64 14.22 21.80 13.96Q21.97 13.71 22.06 13.41L22.06 13.41L23.10 13.69Q22.81 14.66 22.02 15.27Q21.22 15.88 19.88 15.88L19.88 15.88Q19.14 15.88 18.52 15.62Q17.89 15.36 17.44 14.88Q17.00 14.41 16.74 13.75Q16.49 13.09 16.49 12.29L16.49 12.29L16.49 11.96Q16.49 11.23 16.75 10.60Q17.01 9.97 17.47 9.51Q17.93 9.06 18.56 8.80Q19.18 8.54 19.91 8.54L19.91 8.54Q20.76 8.54 21.38 8.86Q22.01 9.17 22.41 9.63Q22.81 10.09 23.00 10.64Q23.18 11.19 23.18 11.65L23.18 11.65L23.18 12.54ZM19.91 9.58L19.91 9.58Q19.45 9.58 19.05 9.72Q18.65 9.87 18.35 10.14Q18.05 10.40 17.86 10.76Q17.67 11.12 17.61 11.54L17.61 11.54L22.09 11.54Q22.06 11.09 21.88 10.72Q21.69 10.36 21.38 10.11Q21.08 9.86 20.70 9.72Q20.31 9.58 19.91 9.58ZM33.19 14.62L33.19 15.68L32.10 15.68L32.10 5.88L33.19 5.88L33.19 9.83L33.36 9.83Q33.73 9.20 34.37 8.87Q35.01 8.54 35.77 8.54L35.77 8.54Q36.41 8.54 36.99 8.78Q37.56 9.02 38.00 9.46Q38.44 9.91 38.70 10.57Q38.96 11.23 38.96 12.07L38.96 12.07L38.96 12.35Q38.96 13.20 38.71 13.86Q38.46 14.52 38.02 14.97Q37.58 15.41 36.99 15.64Q36.40 15.88 35.74 15.88L35.74 15.88Q35.41 15.88 35.06 15.80Q34.71 15.72 34.39 15.56Q34.08 15.40 33.81 15.17Q33.54 14.94 33.36 14.62L33.36 14.62L33.19 14.62ZM35.52 14.84L35.52 14.84Q36.02 14.84 36.44 14.66Q36.86 14.49 37.18 14.17Q37.49 13.85 37.67 13.38Q37.84 12.92 37.84 12.35L37.84 12.35L37.84 12.07Q37.84 11.51 37.67 11.05Q37.49 10.60 37.18 10.27Q36.86 9.94 36.44 9.76Q36.01 9.58 35.52 9.58L35.52 9.58Q35.03 9.58 34.61 9.77Q34.19 9.95 33.87 10.29Q33.56 10.63 33.38 11.09Q33.19 11.56 33.19 12.12L33.19 12.12L33.19 12.29Q33.19 12.87 33.38 13.33Q33.56 13.80 33.87 14.14Q34.19 14.48 34.61 14.66Q35.03 14.84 35.52 14.84ZM63.29 6.97L63.29 5.88L66.51 5.88Q68.33 5.88 69.17 6.75Q70.01 7.62 70.01 9.52L70.01 9.52L70.01 12.04Q70.01 13.94 69.17 14.81Q68.33 15.68 66.51 15.68L66.51 15.68L63.29 15.68L63.29 14.57L64.13 14.57L64.13 6.97L63.29 6.97ZM65.31 14.59L66.35 14.59Q66.99 14.59 67.46 14.46Q67.93 14.34 68.24 14.04Q68.54 13.73 68.69 13.23Q68.84 12.73 68.84 11.96L68.84 11.96L68.84 9.60Q68.84 8.83 68.69 8.33Q68.54 7.83 68.24 7.53Q67.93 7.22 67.46 7.10Q66.99 6.97 66.35 6.97L66.35 6.97L65.31 6.97L65.31 14.59ZM85.46 12.54L79.86 12.54Q79.90 13.58 80.50 14.21Q81.10 14.84 82.18 14.84L82.18 14.84Q82.67 14.84 83.03 14.73Q83.40 14.62 83.66 14.42Q83.92 14.22 84.08 13.96Q84.24 13.71 84.34 13.41L84.34 13.41L85.37 13.69Q85.08 14.66 84.29 15.27Q83.50 15.88 82.15 15.88L82.15 15.88Q81.41 15.88 80.79 15.62Q80.16 15.36 79.72 14.88Q79.27 14.41 79.02 13.75Q78.76 13.09 78.76 12.29L78.76 12.29L78.76 11.96Q78.76 11.23 79.02 10.60Q79.28 9.97 79.74 9.51Q80.21 9.06 80.83 8.80Q81.45 8.54 82.18 8.54L82.18 8.54Q83.03 8.54 83.66 8.86Q84.28 9.17 84.68 9.63Q85.08 10.09 85.27 10.64Q85.46 11.19 85.46 11.65L85.46 11.65L85.46 12.54ZM82.18 9.58L82.18 9.58Q81.72 9.58 81.32 9.72Q80.92 9.87 80.62 10.14Q80.32 10.40 80.13 10.76Q79.94 11.12 79.88 11.54L79.88 11.54L84.36 11.54Q84.34 11.09 84.15 10.72Q83.96 10.36 83.66 10.11Q83.36 9.86 82.97 9.72Q82.59 9.58 82.18 9.58ZM101.18 8.74L98.76 15.68L96.60 15.68L94.18 8.74L95.47 8.74L97.59 15.18L97.76 15.18L99.89 8.74L101.18 8.74ZM116.59 12.54L110.99 12.54Q111.03 13.58 111.64 14.21Q112.24 14.84 113.32 14.84L113.32 14.84Q113.81 14.84 114.17 14.73Q114.53 14.62 114.79 14.42Q115.05 14.22 115.21 13.96Q115.37 13.71 115.47 13.41L115.47 13.41L116.51 13.69Q116.21 14.66 115.42 15.27Q114.63 15.88 113.29 15.88L113.29 15.88Q112.55 15.88 111.92 15.62Q111.30 15.36 110.85 14.88Q110.40 14.41 110.15 13.75Q109.90 13.09 109.90 12.29L109.90 12.29L109.90 11.96Q109.90 11.23 110.16 10.60Q110.42 9.97 110.88 9.51Q111.34 9.06 111.97 8.80Q112.59 8.54 113.32 8.54L113.32 8.54Q114.17 8.54 114.79 8.86Q115.42 9.17 115.81 9.63Q116.21 10.09 116.40 10.64Q116.59 11.19 116.59 11.65L116.59 11.65L116.59 12.54ZM113.32 9.58L113.32 9.58Q112.85 9.58 112.45 9.72Q112.06 9.87 111.75 10.14Q111.45 10.40 111.27 10.76Q111.08 11.12 111.02 11.54L111.02 11.54L115.50 11.54Q115.47 11.09 115.28 10.72Q115.09 10.36 114.79 10.11Q114.49 9.86 114.11 9.72Q113.72 9.58 113.32 9.58ZM125.76 15.68L125.76 14.67L128.28 14.67L128.28 6.89L125.85 6.89L125.85 5.88L129.37 5.88L129.37 14.67L131.89 14.67L131.89 15.68L125.76 15.68ZM147.88 12.12L147.88 12.29Q147.88 13.16 147.59 13.82Q147.31 14.49 146.83 14.95Q146.36 15.40 145.72 15.64Q145.08 15.88 144.40 15.88L144.40 15.88Q143.70 15.88 143.07 15.64Q142.44 15.40 141.96 14.95Q141.48 14.49 141.20 13.82Q140.91 13.16 140.91 12.29L140.91 12.29L140.91 12.12Q140.91 11.27 141.20 10.61Q141.48 9.94 141.97 9.48Q142.45 9.02 143.08 8.78Q143.71 8.54 144.40 8.54L144.40 8.54Q145.08 8.54 145.71 8.78Q146.34 9.02 146.82 9.48Q147.31 9.94 147.59 10.61Q147.88 11.27 147.88 12.12L147.88 12.12ZM144.40 14.84L144.40 14.84Q144.90 14.84 145.33 14.66Q145.75 14.49 146.08 14.15Q146.40 13.82 146.58 13.35Q146.76 12.88 146.76 12.29L146.76 12.29L146.76 12.12Q146.76 11.56 146.58 11.09Q146.40 10.63 146.08 10.29Q145.75 9.95 145.32 9.77Q144.89 9.58 144.40 9.58L144.40 9.58Q143.91 9.58 143.47 9.77Q143.04 9.95 142.72 10.29Q142.39 10.63 142.21 11.09Q142.03 11.56 142.03 12.12L142.03 12.12L142.03 12.29Q142.03 12.88 142.21 13.35Q142.39 13.82 142.72 14.15Q143.04 14.49 143.47 14.66Q143.89 14.84 144.40 14.84ZM157.74 14.62L157.74 18.48L156.65 18.48L156.65 8.74L157.74 8.74L157.74 9.83L157.91 9.83Q158.27 9.20 158.91 8.87Q159.56 8.54 160.31 8.54L160.31 8.54Q160.96 8.54 161.53 8.78Q162.11 9.02 162.55 9.46Q162.99 9.91 163.25 10.57Q163.51 11.23 163.51 12.07L163.51 12.07L163.51 12.35Q163.51 13.20 163.25 13.86Q163.00 14.52 162.56 14.97Q162.12 15.41 161.53 15.64Q160.94 15.88 160.29 15.88L160.29 15.88Q159.95 15.88 159.60 15.80Q159.25 15.72 158.94 15.56Q158.62 15.40 158.35 15.17Q158.09 14.94 157.91 14.62L157.91 14.62L157.74 14.62ZM160.06 14.84L160.06 14.84Q160.57 14.84 160.99 14.66Q161.41 14.49 161.72 14.17Q162.04 13.85 162.21 13.38Q162.39 12.92 162.39 12.35L162.39 12.35L162.39 12.07Q162.39 11.51 162.21 11.05Q162.04 10.60 161.72 10.27Q161.41 9.94 160.98 9.76Q160.55 9.58 160.06 9.58L160.06 9.58Q159.57 9.58 159.15 9.77Q158.73 9.95 158.42 10.29Q158.10 10.63 157.92 11.09Q157.74 11.56 157.74 12.12L157.74 12.12L157.74 12.29Q157.74 12.87 157.92 13.33Q158.10 13.80 158.42 14.14Q158.73 14.48 159.15 14.66Q159.57 14.84 160.06 14.84ZM178.86 12.54L173.26 12.54Q173.31 13.58 173.91 14.21Q174.51 14.84 175.59 14.84L175.59 14.84Q176.08 14.84 176.44 14.73Q176.81 14.62 177.07 14.42Q177.32 14.22 177.49 13.96Q177.65 13.71 177.74 13.41L177.74 13.41L178.78 13.69Q178.49 14.66 177.70 15.27Q176.90 15.88 175.56 15.88L175.56 15.88Q174.82 15.88 174.20 15.62Q173.57 15.36 173.12 14.88Q172.68 14.41 172.42 13.75Q172.17 13.09 172.17 12.29L172.17 12.29L172.17 11.96Q172.17 11.23 172.43 10.60Q172.69 9.97 173.15 9.51Q173.61 9.06 174.24 8.80Q174.86 8.54 175.59 8.54L175.59 8.54Q176.44 8.54 177.07 8.86Q177.69 9.17 178.09 9.63Q178.49 10.09 178.68 10.64Q178.86 11.19 178.86 11.65L178.86 11.65L178.86 12.54ZM175.59 9.58L175.59 9.58Q175.13 9.58 174.73 9.72Q174.33 9.87 174.03 10.14Q173.73 10.40 173.54 10.76Q173.35 11.12 173.29 11.54L173.29 11.54L177.77 11.54Q177.74 11.09 177.56 10.72Q177.37 10.36 177.07 10.11Q176.76 9.86 176.38 9.72Q175.99 9.58 175.59 9.58ZM187.64 9.74L187.64 8.74L190.16 8.74L190.16 9.66L190.33 9.66Q190.60 9.09 191.09 8.81Q191.58 8.54 192.21 8.54L192.21 8.54Q193.26 8.54 193.90 9.23Q194.54 9.91 194.59 11.23L194.59 11.23L193.44 11.40Q193.44 10.43 192.98 10.00Q192.51 9.58 191.84 9.58L191.84 9.58Q191.41 9.58 191.09 9.74Q190.78 9.91 190.57 10.21Q190.36 10.50 190.26 10.89Q190.16 11.28 190.16 11.73L190.16 11.73L190.16 14.67L191.93 14.67L191.93 15.68L187.47 15.68L187.47 14.67L189.07 14.67L189.07 9.74L187.64 9.74Z"></path></g></svg>