<svg data-v-423bf9ae="" xmlns="http://www.w3.org/2000/svg" viewBox="0 0 71.01998275597684 60" class="font"><!----><!----><!----><g data-v-423bf9ae="" id="ab6cb9e8-36ab-438c-a0fe-949236bd83d8" fill="black" transform="matrix(4.2425313999419805,0,0,4.2425313999419805,-0.8909313913680137,-11.444227695627823)"><path d="M8.74 3.00Q8.74 3.12 8.67 3.25Q8.61 3.37 8.55 3.45Q8.48 3.53 8.46 3.56L8.46 3.56L7.88 3.56Q7.76 3.68 7.76 3.85L7.76 3.85Q7.76 3.92 7.81 4.14L7.81 4.14Q7.88 4.52 7.88 4.69L7.88 4.69L7.88 7.87Q7.88 12.96 8.11 16.17L8.11 16.17Q8.12 16.51 7.94 16.66Q7.76 16.81 7.49 16.81L7.49 16.81Q7.29 16.81 7.11 16.74Q6.92 16.67 6.82 16.58L6.82 16.58Q6.71 16.24 6.56 15.80Q6.41 15.36 6.23 14.80L6.23 14.80Q5.21 11.80 4.79 10.32L4.79 10.32Q4.66 9.84 4.41 9.28Q4.16 8.71 4.13 8.65L4.13 8.65Q4.05 8.47 4.00 8.35Q3.96 8.23 3.95 8.20L3.95 8.20Q3.84 7.95 3.78 7.56L3.78 7.56Q3.71 7.20 3.63 7.01Q3.54 6.82 3.30 6.69L3.30 6.69L3.30 8.65L3.30 10.89L3.30 13.15L3.30 13.99L3.30 15.39Q3.49 15.57 3.68 15.62Q3.86 15.67 4.13 15.67L4.13 15.67Q4.13 15.81 4.16 16.09L4.16 16.09Q4.19 16.31 4.19 16.39L4.19 16.39Q4.19 16.59 4.11 16.69Q4.03 16.79 3.82 16.79L3.82 16.79L3.19 16.80L1.32 16.84Q1.20 16.84 1.17 16.75Q1.13 16.66 1.13 16.48L1.13 16.48Q1.13 16.28 1.15 16.17L1.15 16.17L1.16 15.75Q1.19 15.76 1.28 15.79Q1.37 15.82 1.46 15.82L1.46 15.82Q1.62 15.82 1.62 15.67L1.62 15.67Q1.78 15.34 1.78 14.81L1.78 14.81Q1.78 14.59 1.75 14.20L1.75 14.20Q1.72 13.83 1.72 13.71L1.72 13.71Q1.72 13.22 1.67 12.21L1.67 12.21Q1.62 11.59 1.62 11.19L1.62 11.19L1.61 9.21Q1.61 8.89 1.55 8.36L1.55 8.36Q1.50 7.83 1.50 7.56L1.50 7.56Q1.50 7.48 1.43 7.13L1.43 7.13Q1.34 6.82 1.34 6.69L1.34 6.69L1.34 6.41L1.34 5.56Q1.34 5.35 1.33 5.26L1.33 5.26L1.32 4.84Q1.32 4.62 1.18 4.28L1.18 4.28Q1.06 4.00 1.06 3.88L1.06 3.88Q0.66 3.88 0.43 3.71Q0.21 3.54 0.21 3.32L0.21 3.32Q0.21 3.11 0.35 2.95Q0.49 2.80 0.70 2.80L0.70 2.80Q0.81 2.80 0.88 2.79Q0.94 2.79 0.99 2.79L0.99 2.79Q1.12 2.76 1.34 2.74L1.34 2.74Q1.44 2.73 1.57 2.75Q1.69 2.77 1.76 2.77L1.76 2.77Q2.04 2.80 2.25 2.80L2.25 2.80Q2.42 2.80 2.53 2.91Q2.65 3.02 2.69 3.15Q2.74 3.28 2.74 3.32L2.74 3.32Q3.29 4.12 3.68 5.01Q4.07 5.89 4.61 7.28L4.61 7.28Q5.07 8.50 5.26 8.93L5.26 8.93Q5.45 9.51 5.64 9.93Q5.84 10.36 6.12 10.89L6.12 10.89Q6.12 11.09 6.17 11.26Q6.22 11.44 6.36 11.76L6.36 11.76Q6.40 11.84 6.50 12.21L6.50 12.21Q6.61 12.56 6.75 12.94Q6.89 13.33 7.01 13.50L7.01 13.50Q7.04 13.54 7.05 13.49Q7.06 13.44 7.06 13.34L7.06 13.34Q7.06 13.13 7 12.40L7 12.40Q6.94 11.68 6.94 11.47L6.94 11.47Q6.94 10.84 7 9.27L7 9.27Q7.06 7.59 7.06 6.65L7.06 6.65L7.06 6.37Q7.06 5.94 6.92 5.24L6.92 5.24Q6.78 4.54 6.78 4.12L6.78 4.12Q6.51 3.85 6.31 3.70Q6.10 3.56 5.92 3.56L5.92 3.56Q5.84 3.47 5.73 3.40Q5.63 3.32 5.58 3.25Q5.53 3.18 5.53 3.08L5.53 3.08Q5.53 2.93 5.64 2.70L5.64 2.70Q5.77 2.70 5.84 2.74Q5.92 2.79 6.15 2.79L6.15 2.79Q6.41 2.79 6.57 2.75Q6.73 2.72 6.78 2.70L6.78 2.70Q6.94 2.74 7.14 2.74L7.14 2.74Q7.28 2.74 7.59 2.72L7.59 2.72Q8.02 2.69 8.20 2.70L8.20 2.70Q8.61 2.73 8.74 3.00L8.74 3.00ZM12.56 15.72Q13.05 15.72 13.36 15.84Q13.66 15.96 13.66 16.18L13.66 16.18Q13.66 16.37 13.44 16.60L13.44 16.60Q13.08 16.60 12.05 16.67L12.05 16.67Q11.33 16.73 11.02 16.73L11.02 16.73Q10.42 16.73 9.91 16.60L9.91 16.60Q9.88 16.58 9.81 16.49Q9.74 16.41 9.67 16.28Q9.60 16.16 9.60 16.02L9.60 16.02Q9.83 15.79 9.94 15.76Q10.05 15.72 10.49 15.72L10.49 15.72Q10.65 15.57 10.65 15.16L10.65 15.16Q10.65 15.01 10.63 14.70L10.63 14.70Q10.60 14.42 10.60 14.31L10.60 14.31L10.60 13.87Q10.60 12.56 10.64 11.45L10.64 11.45Q10.67 10.14 10.67 9.51L10.67 9.51Q10.67 9.14 10.68 8.95L10.68 8.95L10.70 8.12Q10.70 7.56 10.67 7.25L10.67 7.25Q10.64 6.89 10.64 6.78L10.64 6.78L10.64 6.72Q10.64 6.43 10.65 6.24L10.65 6.24Q10.68 5.61 10.67 5.03L10.67 5.03L10.68 4.58Q10.68 4.38 10.64 4.26Q10.60 4.14 10.47 4.10L10.47 4.10Q10.32 4.03 10.09 4.03L10.09 4.03Q9.94 4.02 9.85 3.99Q9.76 3.96 9.63 3.85L9.63 3.85Q9.35 3.70 9.35 3.54L9.35 3.54Q9.35 3.44 9.44 3.35Q9.52 3.25 9.64 3.14Q9.76 3.04 9.83 2.98L9.83 2.98Q10.91 2.79 12.50 2.79L12.50 2.79L14.01 2.80Q14.13 2.80 14.20 2.79Q14.28 2.77 14.34 2.77L14.34 2.77Q14.48 2.77 14.62 2.80L14.62 2.80Q15.43 2.93 16.07 3.88Q16.72 4.84 16.95 6.03L16.95 6.03Q16.95 6.92 16.91 7.45Q16.86 7.98 16.66 8.39L16.66 8.39Q16.51 8.85 16.18 9.23Q15.85 9.60 15.32 10.05L15.32 10.05Q14.90 10.43 14.90 10.43L14.90 10.43Q14.49 10.64 14.08 10.69Q13.66 10.74 12.85 10.74L12.85 10.74Q12.82 10.74 12.76 10.75Q12.70 10.77 12.63 10.84Q12.56 10.91 12.56 11.03L12.56 11.03Q12.54 11.16 12.55 11.44Q12.56 11.72 12.56 11.87L12.56 11.87L12.56 12.19Q12.56 12.71 12.49 13.37L12.49 13.37Q12.47 13.52 12.45 13.89Q12.42 14.25 12.42 14.55L12.42 14.55Q12.42 15.16 12.56 15.72L12.56 15.72ZM12.56 8.09L12.56 9.55Q12.68 9.69 12.88 9.76Q13.08 9.83 13.29 9.83L13.29 9.83Q13.52 9.83 13.69 9.73L13.69 9.73Q14.11 9.46 14.45 9.01Q14.78 8.55 14.90 8.09L14.90 8.09Q14.92 7.95 15.00 7.67Q15.08 7.38 15.09 7.09Q15.11 6.80 15.11 6.38L15.11 6.38Q15.11 5.74 14.97 5.09Q14.83 4.44 14.62 3.99L14.62 3.99Q14.50 3.99 14.38 3.94Q14.25 3.89 14.21 3.88L14.21 3.88Q13.82 3.68 13.44 3.68L13.44 3.68L12.56 3.68Q12.42 4.38 12.42 5.15L12.42 5.15Q12.42 5.53 12.45 5.99Q12.47 6.45 12.49 6.64L12.49 6.64Q12.56 7.45 12.56 8.09L12.56 8.09Z"></path></g><!----><!----></svg>